<?xml version="1.0" encoding="UTF-8"?>
<svg version="1.1" xmlns="http://www.w3.org/2000/svg" width="256" height="256">
<path d="M0 0 C8.58 0 17.16 0 26 0 C26 8.25 26 16.5 26 25 C51.08 25 76.16 25 102 25 C102 16.75 102 8.5 102 0 C110.58 0 119.16 0 128 0 C128 25.08 128 50.16 128 76 C119.42 76 110.84 76 102 76 C102 67.75 102 59.5 102 51 C76.92 51 51.84 51 26 51 C26 59.25 26 67.5 26 76 C17.42 76 8.84 76 0 76 C0 50.92 0 25.84 0 0 Z " fill="#FDD835" transform="translate(64,90)"/>
<path d="M0 0 C25.08 0 50.16 0 76 0 C76 8.58 76 17.16 76 26 C50.92 26 25.84 26 0 26 C0 17.42 0 8.84 0 0 Z " fill="#FDD835" transform="translate(90,166)"/>
<path d="M0 0 C8.25 0 16.5 0 25 0 C25 8.58 25 17.16 25 26 C16.75 26 8.5 26 0 26 C0 17.42 0 8.84 0 0 Z " fill="#FDD835" transform="translate(141,64)"/>
<path d="M0 0 C8.25 0 16.5 0 25 0 C25 8.58 25 17.16 25 26 C16.75 26 8.5 26 0 26 C0 17.42 0 8.84 0 0 Z " fill="#FDD835" transform="translate(90,64)"/>
</svg>
